PathFileType        4      (X/Y/Z)      Static.trc         
DataRate	CameraRate	NumFrames	NumMarkers	Units	OrigDataRate	OrigDataStartFrame	OrigNumFrames
100.0	100.0	9	33	mm	100.0	137	156
Frame#	Time	T2			T10			MANU			LASI			RASI			SACR			LTHI			LKAX			LKD1			LKD2			LKNE			LTIB			LANK			LMED			LHEE			LTOE			RTHI			RKAX			RKD1			RKD2			RKNE			RTIB			RANK			RMED			RHEE			RTOE			RHJC			LHJC			RKJC			LKJC			MASI			RAJC			LAJC			
		X1	Y1	Z1	X2	Y2	Z2	X3	Y3	Z3	X4	Y4	Z4	X5	Y5	Z5	X6	Y6	Z6	X7	Y7	Z7	X8	Y8	Z8	X9	Y9	Z9	X10	Y10	Z10	X11	Y11	Z11	X12	Y12	Z12	X13	Y13	Z13	X14	Y14	Z14	X15	Y15	Z15	X16	Y16	Z16	X17	Y17	Z17	X18	Y18	Z18	X19	Y19	Z19	X20	Y20	Z20	X21	Y21	Z21	X22	Y22	Z22	X23	Y23	Z23	X24	Y24	Z24	X25	Y25	Z25	X26	Y26	Z26	X27	Y27	Z27	X28	Y28	Z28	X29	Y29	Z29	X30	Y30	Z30	X31	Y31	Z31	X32	Y32	Z32	X33	Y33	Z33	
137	1.36	133.80956	1122.37448	-62.51898	109.41634	924.00322	-78.97289	246.65352	1049.36501	-49.53754	304.26218	735.92474	-150.36592	272.78746	740.40988	67.86178	167.61244	771.42513	-62.50748	308.39253	417.92471	-214.13146	316.73847	354.50527	-277.40827	408.74699	348.05942	-182.61022	310.95681	258.87399	-186.17111	315.27869	352.33868	-183.91692	203.76398	135.66211	-238.31661	156.74019	61.85104	-207.39762	157.43984	49.03303	-133.5602	95.18742	39.61711	-185.15534	268.68825	29.53191	-184.17353	300.64897	432.31321	112.67326	320.83476	361.56392	175.54046	410.04234	357.47086	68.14105	312.93025	265.86109	77.90823	313.8647	361.2649	77.64025	225.61841	144.54872	129.916	174.16243	53.86478	102.67174	177.84965	57.00518	24.06925	118.62011	37.25731	79.79429	288.98122	29.60711	54.17707	218.30717	676.0396	30.81809	241.16423	672.78247	-127.65968	310.59798	361.12476	31.75661	314.56072	351.27309	-137.93487	288.52482	738.16731	-41.25207	172.37206	47.18135	64.22407	152.83831	47.4546	-171.3576	
138	1.37	133.83486	1122.40633	-62.59333	109.4186	924.03769	-79.03333	246.66578	1049.36397	-49.59371	304.24865	735.91235	-150.39593	272.74869	740.40197	67.8179	167.54946	771.41838	-62.5711	308.43184	417.92584	-214.14317	316.77462	354.49736	-277.41601	408.76148	348.04904	-182.61146	310.97414	258.86596	-186.17406	315.29927	352.33171	-183.92698	203.76213	135.65958	-238.32773	156.73907	61.85853	-207.41198	157.4245	49.04509	-133.57754	95.19643	39.63551	-185.15741	268.69045	29.53078	-184.17006	300.64435	432.326	112.65305	320.82919	361.59954	175.5019	410.04333	357.47479	68.13384	312.96114	265.89804	77.89097	313.8875	361.27863	77.61093	225.62774	144.56191	129.90913	174.15206	53.86521	102.66157	177.84862	57.00629	24.06463	118.62255	37.26654	79.78979	288.97475	29.60424	54.17103	218.26761	676.0332	30.76983	241.14309	672.77281	-127.69852	310.63372	361.1282	31.72639	314.57363	351.26655	-137.94504	288.49867	738.15716	-41.28902	172.36524	47.18206	64.21729	152.8295	47.46481	-171.3736	
139	1.38	133.84928	1122.43267	-62.67361	109.42002	924.05998	-79.08993	246.6778	1049.36597	-49.64793	304.2364	735.90171	-150.42378	272.71025	740.39845	67.77312	167.47997	771.407	-62.63669	308.46646	417.92324	-214.15079	316.80772	354.48916	-277.42656	408.77624	348.04029	-182.61172	310.99536	258.86392	-186.17757	315.32018	352.32704	-183.93866	203.75865	135.65978	-238.34141	156.74149	61.86585	-207.42261	157.40454	49.05393	-133.59487	95.19749	39.64519	-185.15809	268.69535	29.53272	-184.1676	300.6397	432.34151	112.635	320.82648	361.63834	175.46804	410.03922	357.48148	68.12554	312.98994	265.93272	77.87664	313.90566	361.2929	77.58513	225.63129	144.57684	129.90482	174.14113	53.86923	102.65129	177.848	57.00694	24.06634	118.62536	37.2785	79.78465	288.96919	29.60523	54.16299	218.23205	676.02764	30.72219	241.12668	672.76206	-127.73471	310.66135	361.13097	31.69996	314.58853	351.26361	-137.95678	288.47332	738.15008	-41.32533	172.35856	47.18437	64.2136	152.8201	47.47319	-171.38764	
140	1.39	133.85339	1122.44853	-62.75687	109.41985	924.06906	-79.14335	246.68421	1049.36515	-49.69454	304.22324	735.89028	-150.44692	272.67184	740.39674	67.73484	167.40719	771.39323	-62.70391	308.49566	417.91702	-214.15255	316.83402	354.47885	-277.43898	408.78715	348.02924	-182.60928	311.0162	258.86296	-186.17894	315.33714	352.3214	-183.94959	203.75276	135.65886	-238.35424	156.74569	61.872	-207.43005	157.37984	49.05476	-133.60747	95.18967	39.64499	-185.16038	268.69729	29.53227	-184.16252	300.6287	432.35479	112.62055	320.82448	361.67482	175.44222	410.02773	357.48709	68.12023	313.00989	265.95909	77.86756	313.91544	361.30408	77.5664	225.62377	144.5886	129.90414	174.1286	53.87403	102.64436	177.84583	57.0063	24.07174	118.62099	37.28601	79.78091	288.96253	29.60751	54.15579	218.19718	676.02157	30.68197	241.11026	672.74892	-127.76467	310.67639	361.13027	31.6809	314.60091	351.26028	-137.96772	288.44754	738.14351	-41.35604	172.3506	47.18653	64.21333	152.80924	47.47687	-171.39764	
141	1.4	133.85236	1122.45465	-62.83866	109.41523	924.066	-79.19533	246.68401	1049.35699	-49.73308	304.20854	735.87599	-150.46611	272.63513	740.39449	67.70565	167.33651	771.37664	-62.77014	308.52072	417.90657	-214.14984	316.85445	354.46545	-277.45274	408.79353	348.01318	-182.60436	311.03519	258.85943	-186.17777	315.34978	352.31245	-183.95923	203.7456	135.65352	-238.36442	156.74909	61.87568	-207.43564	157.35614	49.04627	-133.61294	95.17631	39.63639	-185.16662	268.69407	29.52665	-184.15467	300.60944	432.36247	112.60796	320.82283	361.70478	175.42455	410.01034	357.48824	68.11802	313.01771	265.97258	77.8627	313.9163	361.30957	77.55423	225.60541	144.59288	129.90552	174.11566	53.87681	102.64142	177.84089	57.00368	24.07668	118.60745	37.28423	79.7784	288.95461	29.60743	54.15103	218.16357	676.01297	30.65174	241.09268	672.73156	-127.78807	310.67824	361.12428	31.66871	314.60975	351.25357	-137.97737	288.42184	738.13524	-41.38023	172.34138	47.18677	64.21469	152.79858	47.47457	-171.40306	
142	1.41	133.85229	1122.45617	-62.9153	109.40451	924.05295	-79.24691	246.68108	1049.34134	-49.76811	304.19435	735.85946	-150.48474	272.60377	740.3917	67.68239	167.27551	771.35794	-62.83195	308.5435	417.89125	-214.14686	316.87495	354.45051	-277.46752	408.79888	347.99325	-182.59974	311.05498	258.85344	-186.17572	315.36257	352.30096	-183.96903	203.74001	135.64353	-238.37222	156.7509	61.8763	-207.44045	157.34209	49.03205	-133.61294	95.16383	39.62333	-185.17733	268.68909	29.51838	-184.14749	300.58518	432.36496	112.5935	320.8227	361.72688	175.41154	409.99346	357.48552	68.11495	313.01413	265.97211	77.85796	313.9111	361.31015	77.54385	225.58202	144.58878	129.90534	174.10516	53.87671	102.64001	177.83453	57.00004	24.07827	118.58979	37.27397	79.77467	288.94843	29.60397	54.14794	218.135	676.00239	30.62859	241.0766	672.711	-127.80797	310.6706	361.11476	31.65855	314.61879	351.24383	-137.98719	288.39906	738.12558	-41.40118	172.33293	47.18512	64.21505	152.79204	47.46786	-171.40527	
143	1.42	133.85593	1122.45918	-62.98539	109.3894	924.03382	-79.29766	246.6805	1049.3215	-49.80428	304.18334	735.84357	-150.50567	272.5802	740.39034	67.66031	167.2325	771.34198	-62.88646	308.56513	417.87176	-214.14786	316.90184	354.43731	-277.48182	408.80829	347.97372	-182.59824	311.07976	258.84799	-186.17395	315.3814	352.29011	-183.97976	203.73948	135.63241	-238.37841	156.75215	61.87477	-207.44471	157.34277	49.01836	-133.61106	95.15584	39.61039	-185.19039	268.68784	29.51269	-184.1437	300.56102	432.36576	112.57431	320.82426	361.742	175.39877	409.98326	357.48274	68.10747	313.00184	265.96092	77.84972	313.90332	361.30897	77.53053	225.56031	144.57939	129.90103	174.09993	53.87577	102.6376	177.82925	56.99789	24.07606	118.57533	37.26041	79.76774	288.94729	29.59914	54.14486	218.11356	675.99393	30.60762	241.06427	672.69199	-127.82803	310.65847	361.10595	31.64557	314.63368	351.23418	-137.99796	288.38177	738.11695	-41.42268	172.32786	47.18376	64.21304	152.79263	47.4603	-171.4062	
144	1.43	133.86199	1122.46717	-63.04941	109.37554	924.01353	-79.34657	246.68468	1049.30125	-49.8429	304.17537	735.8309	-150.52918	272.56354	740.39284	67.63741	167.21423	771.33562	-62.93223	308.58522	417.85027	-214.15483	316.93629	354.42805	-277.49313	408.82406	347.95867	-182.60046	311.11047	258.84553	-186.17208	315.40813	352.28261	-183.99033	203.74707	135.62614	-238.38321	156.7532	61.87289	-207.44855	157.35574	49.01039	-133.60982	95.14937	39.60145	-185.20212	268.69216	29.51257	-184.14333	300.53928	432.36868	112.54992	320.82463	361.75148	175.38408	409.98067	357.48339	68.09539	312.98302	265.94489	77.83761	313.89403	361.30898	77.51311	225.54305	144.56976	129.89282	174.10069	53.87768	102.63379	177.82635	56.99922	24.07123	118.5677	37.24926	79.75795	288.9516	29.59647	54.14072	218.09702	675.99294	30.58656	241.05403	672.67999	-127.8494	310.64478	361.10153	31.62848	314.65663	351.22754	-138.00858	288.36946	738.11187	-41.44588	172.32713	47.18555	64.20906	152.79921	47.45542	-171.40724	
145	1.44	133.86778	1122.47898	-63.10849	109.37083	923.99554	-79.39274	246.69197	1049.28223	-49.88222	304.16693	735.82157	-150.55388	272.55084	740.4005	67.61479	167.22241	771.34255	-62.96936	308.60286	417.82948	-214.16704	316.97329	354.42207	-277.49986	408.84392	347.94907	-182.60491	311.14228	258.84505	-186.16951	315.43844	352.27834	-183.99886	203.76337	135.62953	-238.38662	156.75251	61.87209	-207.45289	157.37291	49.01027	-133.60945	95.13911	39.5989	-185.21089	268.69839	29.51655	-184.14549	300.51813	432.37495	112.52181	320.81916	361.75596	175.36827	409.98193	357.48808	68.08148	312.95887	265.92934	77.82413	313.88209	361.31101	77.49388	225.52862	144.56382	129.883	174.10525	53.88474	102.62961	177.82565	57.00371	24.06509	118.56545	37.24391	79.74749	288.95898	29.59871	54.13566	218.08111	676.00239	30.56681	241.04118	672.6771	-127.87047	310.62993	361.10242	31.60946	314.68363	351.2241	-138.01714	288.35888	738.11104	-41.46954	172.32951	47.19145	64.20427	152.80694	47.45504	-171.40905	
